<?xml version="1.0" standalone="no"?>
<!DOCTYPE svg PUBLIC "-//W3C//DTD SVG 20010904//EN"
 "http://www.w3.org/TR/2001/REC-SVG-20010904/DTD/svg10.dtd">
<svg version="1.0" xmlns="http://www.w3.org/2000/svg"
 width="90.000000pt" height="90.000000pt" viewBox="0 0 90.000000 90.000000"
 preserveAspectRatio="xMidYMid meet">
<metadata>
Created by potrace 1.11, written by Peter Selinger 2001-2013
</metadata>
<g transform="translate(0.000000,90.000000) scale(0.100000,-0.100000)"
fill="#000000" stroke="none">
<path d="M325 786 c-64 -23 -143 -87 -180 -147 -173 -272 95 -625 405 -533
214 63 318 295 222 496 -81 172 -267 248 -447 184z m259 -70 c219 -107 218
-425 -2 -533 -81 -40 -183 -40 -264 0 -232 114 -216 451 26 547 71 28 165 22
240 -14z"/>
<path d="M282 498 c-30 -30 -3 -78 43 -78 23 0 40 43 26 69 -13 23 -50 28 -69
9z"/>
<path d="M556 494 c-20 -19 -20 -35 -2 -59 12 -16 19 -18 43 -10 18 7 29 19
31 33 7 46 -40 69 -72 36z"/>
<path d="M335 313 c-4 -12 2 -25 19 -40 50 -43 143 -42 193 2 27 23 27 25 11
41 -17 17 -20 17 -53 1 -43 -21 -72 -21 -105 -2 -34 19 -57 19 -65 -2z"/>
</g>
</svg>
